<svg xmlns="http://www.w3.org/2000/svg" viewBox="0 0 800 600" width="800" height="600">
    <!-- 背景 -->
    <rect width="800" height="600" fill="#f9f9f9" />
    
    <!-- 标题 -->
    <text x="400" y="40" font-family="Arial" font-size="24" text-anchor="middle" font-weight="bold">Double Write机制示意图</text>
    
    <!-- 内存区域 -->
    <rect x="50" y="100" width="300" height="300" fill="#e6f7ff" stroke="#1890ff" stroke-width="2" />
    <text x="200" y="130" font-family="Arial" font-size="18" text-anchor="middle" font-weight="bold">内存</text>
    
    <!-- Buffer Pool -->
    <rect x="70" y="150" width="260" height="200" fill="#ffffff" stroke="#40a9ff" stroke-width="2" />
    <text x="200" y="180" font-family="Arial" font-size="16" text-anchor="middle" font-weight="bold">Buffer Pool</text>
    
    <!-- 脏页 -->
    <rect x="100" y="220" width="200" height="60" fill="#fff2e8" stroke="#fa8c16" stroke-width="2" />
    <text x="200" y="255" font-family="Arial" font-size="14" text-anchor="middle">脏页 (16KB)</text>
    
    <!-- Double Write Buffer -->
    <rect x="70" y="380" width="260" height="80" fill="#fff1f0" stroke="#f5222d" stroke-width="2" />
    <text x="200" y="410" font-family="Arial" font-size="16" text-anchor="middle" font-weight="bold">Double Write Buffer</text>
    
    <!-- 磁盘区域 -->
    <rect x="450" y="100" width="300" height="450" fill="#f6ffed" stroke="#52c41a" stroke-width="2" />
    <text x="600" y="130" font-family="Arial" font-size="18" text-anchor="middle" font-weight="bold">磁盘</text>
    
    <!-- Double Write区域 -->
    <rect x="470" y="180" width="260" height="120" fill="#f0fff4" stroke="#389e0d" stroke-width="2" />
    <text x="600" y="210" font-family="Arial" font-size="16" text-anchor="middle" font-weight="bold">Double Write区域</text>
    
    <!-- 数据页1 -->
    <rect x="490" y="230" width="100" height="60" fill="#fff2e8" stroke="#fa8c16" stroke-width="2" />
    <text x="540" y="265" font-family="Arial" font-size="12" text-anchor="middle">数据页1 (16KB)</text>
    
    <!-- 数据页2 -->
    <rect x="610" y="230" width="100" height="60" fill="#fff2e8" stroke="#fa8c16" stroke-width="2" />
    <text x="660" y="265" font-family="Arial" font-size="12" text-anchor="middle">数据页2 (16KB)</text>
    
    <!-- 数据文件 -->
    <rect x="470" y="350" width="260" height="180" fill="#e6fffb" stroke="#13c2c2" stroke-width="2" />
    <text x="600" y="380" font-family="Arial" font-size="16" text-anchor="middle" font-weight="bold">数据文件</text>
    
    <!-- 实际数据页位置 -->
    <rect x="490" y="400" width="220" height="100" fill="#fff2e8" stroke="#fa8c16" stroke-width="2" />
    <text x="600" y="450" font-family="Arial" font-size="14" text-anchor="middle">实际数据页位置</text>
    
    <!-- 箭头1: 脏页 -> Double Write Buffer -->
    <line x1="270" y1="280" x2="180" y2="410" stroke="#1890ff" stroke-width="2" stroke-dasharray="5,5" />
    <polygon points="180,410 185,400 175,400" fill="#1890ff" />
    <text x="220" y="350" font-family="Arial" font-size="12" fill="#1890ff">1. 复制到</text>
    
    <!-- 箭头2: Double Write Buffer -> Double Write区域 -->
    <line x1="330" y1="420" x2="470" y2="240" stroke="#1890ff" stroke-width="2" />
    <polygon points="470,240 460,235 460,245" fill="#1890ff" />
    <text x="400" y="320" font-family="Arial" font-size="12" fill="#1890ff">2. 写入到</text>
    
    <!-- 箭头3: Double Write Buffer -> 数据文件 -->
    <line x1="330" y1="440" x2="470" y2="450" stroke="#1890ff" stroke-width="2" />
    <polygon points="470,450 460,445 460,455" fill="#1890ff" />
    <text x="400" y="420" font-family="Arial" font-size="12" fill="#1890ff">3. 写入到</text>
    
    <!-- 箭头4: 部分写失效恢复 -->
    <line x1="570" y1="260" x2="570" y2="420" stroke="#f5222d" stroke-width="2" stroke-dasharray="5,5" />
    <polygon points="570,420 565,410 575,410" fill="#f5222d" />
    <text x="590" y="340" font-family="Arial" font-size="12" fill="#f5222d">4. 恢复时使用</text>
    
    <!-- 注释 -->
    <text x="400" y="550" font-family="Arial" font-size="14" text-anchor="middle">Double Write机制通过先写入共享表空间的Double Write区域，再写入实际数据文件，确保数据页的完整性</text>
</svg>
    